# xmcd
#
# Track frame offsets:
#	180
#	23309
#	45123
#	66741
#	89853
#	110329
#	132829
#	153738
#	171282
#	199489
#	222283
#	244637
#	272021
#	295026
#	298224
#	304675
#
# Disc length: 4367 seconds
#
# Revision: 3
# Processed by: cddbd v1.5.2PL0 Copyright (c) Steve Scherf et al.
# Submitted via: EasyCDDAExtractor 16.0.6.1
#
DISCID=f2110d10
DTITLE=Various Artist - Serie 32 Se Botó La Salsa (disk 1)
DYEAR=1997
DGENRE=Salsa
TTITLE0=Paquito Guzman - Cinco Noches
TTITLE1=Tommy Oliencia - Lobo Domesticado
TTITLE2=Frankie Ruiz - Desnudate Mujer
TTITLE3=David Pabón - Aquel Viejo Motel
TTITLE4=Lalo Rodriguez - Despues De Hacer El Amor
TTITLE5=Eddie Santiago - Tu Me Quemas
TTITLE6=Andy Montañez - Payaso
TTITLE7=Guaco - Las Caraqueñas
TTITLE8=Amilcar Boscan - Apariencias
TTITLE9=Tony Vega - Aparentemente
TTITLE10=Ray Sepulveda - Hay Otra En Tu Lugar
TTITLE11=India and Marc Anthony - Vivir Lo Nuestro
TTITLE12=José Alberto - Bailemos Otra Vez
TTITLE13=Noche Caliente - Estar Enamorado
TTITLE14=Noche Caliente - Todo Se Derrumbo
TTITLE15=Noche Caliente and Mentirosa - Mentirosa - Noche Caliente
EXTD=
EXTT0=
EXTT1=
EXTT2=
EXTT3=
EXTT4=
EXTT5=
EXTT6=
EXTT7=
EXTT8=
EXTT9=
EXTT10=
EXTT11=
EXTT12=
EXTT13=
EXTT14=
EXTT15=
PLAYORDER=
